<svg width="24" height="24" viewBox="0 0 24 24" fill="none" xmlns="http://www.w3.org/2000/svg">
<g clip-path="url(#clip0_214_5)">
<path fill-rule="evenodd" clip-rule="evenodd" d="M5.12067 3.5748C5.31751 3.37825 5.55388 3.22577 5.81411 3.12748C6.07434 3.0292 6.35249 2.98733 6.63012 3.00467C6.90776 3.02201 7.17853 3.09815 7.42451 3.22806C7.67049 3.35796 7.88605 3.53866 8.05692 3.75817L10.0763 6.35242C10.4464 6.8283 10.5769 7.44817 10.4307 8.03317L9.81529 10.4969C9.7837 10.6245 9.78553 10.7581 9.8206 10.8849C9.85568 11.0116 9.92282 11.1271 10.0155 11.2203L12.7797 13.9844C12.873 14.0773 12.9887 14.1446 13.1156 14.1797C13.2426 14.2147 13.3764 14.2165 13.5042 14.1847L15.9668 13.5693C16.2555 13.4975 16.5567 13.4921 16.8479 13.5535C17.139 13.6149 17.4124 13.7414 17.6475 13.9237L20.2418 15.9419C21.1744 16.6675 21.2599 18.0457 20.4252 18.8793L19.2619 20.0425C18.4294 20.875 17.1852 21.2407 16.0253 20.8323C13.056 19.789 10.3604 18.0893 8.13904 15.8598C5.90971 13.6388 4.21004 10.9435 3.16654 7.97467C2.75929 6.81592 3.12492 5.57055 3.95742 4.73805L5.12067 3.5748Z" fill="#B71C1C"/>
</g>
<defs>
<clipPath id="clip0_214_5">
<rect width="18" height="18" fill="white" transform="translate(3 3)"/>
</clipPath>
</defs>
</svg>
