<svg width="24" height="24" viewBox="0 0 24 24" fill="none" xmlns="http://www.w3.org/2000/svg">
<path d="M5.458 18.185C3.359 16.677 2 14.4 2 11.908C2 7.32298 6.475 3.59998 12 3.59998C17.525 3.59998 22 7.32298 22 11.908C22 16.492 17.525 20.216 12 20.216C10.8926 20.2223 9.79032 20.0666 8.728 19.754C8.636 19.724 8.512 19.724 8.42 19.724C8.235 19.724 8.05 19.784 7.895 19.877L5.704 21.139C5.642 21.169 5.58 21.2 5.518 21.2C5.42851 21.1992 5.34288 21.1634 5.2795 21.1002C5.21613 21.037 5.18004 20.9515 5.179 20.862C5.179 20.769 5.209 20.708 5.241 20.616C5.271 20.585 5.549 19.569 5.704 18.954C5.704 18.892 5.734 18.8 5.734 18.739C5.734 18.492 5.642 18.308 5.457 18.185M8.667 10.512C9.384 10.512 9.952 9.94298 9.952 9.22598C9.952 8.50798 9.384 7.93998 8.667 7.93998C7.949 7.93998 7.382 8.50798 7.382 9.22598C7.382 9.94298 7.949 10.511 8.667 10.511M15.333 10.511C16.051 10.511 16.618 9.94198 16.618 9.22498C16.618 8.50698 16.051 7.93898 15.333 7.93898C14.616 7.93898 14.048 8.50698 14.048 9.22498C14.048 9.94198 14.616 10.511 15.333 10.511Z" fill="#B71C1C"/>
</svg>
