<svg width="24" height="24" viewBox="0 0 24 24" fill="none" xmlns="http://www.w3.org/2000/svg">
<path d="M18.223 3.08602C18.3391 3.2021 18.4312 3.33991 18.4941 3.49159C18.5569 3.64327 18.5892 3.80584 18.5892 3.97002C18.5892 4.1342 18.5569 4.29677 18.4941 4.44845C18.4312 4.60013 18.3391 4.73794 18.223 4.85402L17.08 5.99602H18.25C18.7425 5.99602 19.2303 6.09305 19.6853 6.28157C20.1403 6.47009 20.5538 6.7464 20.902 7.09472C21.2502 7.44305 21.5264 7.85656 21.7148 8.31165C21.9032 8.76674 22.0001 9.25448 22 9.74702V17.247C22 18.2416 21.6049 19.1954 20.9017 19.8987C20.1984 20.6019 19.2446 20.997 18.25 20.997H5.75C4.75544 20.997 3.80161 20.6019 3.09835 19.8987C2.39509 19.1954 2 18.2416 2 17.247V9.74702C2 8.75246 2.39509 7.79863 3.09835 7.09537C3.80161 6.39211 4.75544 5.99702 5.75 5.99702H6.916L5.775 4.85502C5.54724 4.61933 5.42115 4.30362 5.42391 3.97587C5.42666 3.64812 5.55803 3.33457 5.78973 3.10274C6.02142 2.87092 6.3349 2.73937 6.66265 2.73642C6.99039 2.73348 7.30618 2.85939 7.542 3.08702L10.194 5.73902C10.273 5.81802 10.339 5.90402 10.392 5.99602H13.605C13.658 5.90402 13.725 5.81602 13.804 5.73802L16.455 3.08602C16.5711 2.96991 16.7089 2.87781 16.8606 2.81497C17.0122 2.75213 17.1748 2.71979 17.339 2.71979C17.5032 2.71979 17.6658 2.75213 17.8174 2.81497C17.9691 2.87781 18.1069 2.96991 18.223 3.08602ZM18.25 8.50602H5.75C5.4345 8.5059 5.13062 8.6251 4.89934 8.83969C4.66805 9.05428 4.52647 9.34839 4.503 9.66302L4.5 9.75702V17.257C4.5 17.916 5.01 18.455 5.657 18.503L5.75 18.507H18.25C18.5655 18.5071 18.8694 18.3879 19.1007 18.1734C19.3319 17.9588 19.4735 17.6646 19.497 17.35L19.5 17.257V9.75702C19.5 9.06702 18.94 8.50702 18.25 8.50702M8.25 11.007C8.94 11.007 9.5 11.567 9.5 12.257V13.507C9.5 13.8385 9.3683 14.1565 9.13388 14.3909C8.89946 14.6253 8.58152 14.757 8.25 14.757C7.91848 14.757 7.60054 14.6253 7.36612 14.3909C7.1317 14.1565 7 13.8385 7 13.507V12.257C7 11.567 7.56 11.007 8.25 11.007ZM15.75 11.007C16.44 11.007 17 11.567 17 12.257V13.507C17 13.8385 16.8683 14.1565 16.6339 14.3909C16.3995 14.6253 16.0815 14.757 15.75 14.757C15.4185 14.757 15.1005 14.6253 14.8661 14.3909C14.6317 14.1565 14.5 13.8385 14.5 13.507V12.257C14.5 11.567 15.06 11.007 15.75 11.007Z" fill="#B71C1C"/>
</svg>
