<svg width="136" height="72" viewBox="0 0 136 72" fill="none" xmlns="http://www.w3.org/2000/svg">
<mask id="mask0_159_35" style="mask-type:alpha" maskUnits="userSpaceOnUse" x="0" y="0" width="136" height="72">
<rect width="136" height="72" fill="#D9D9D9"/>
</mask>
<g mask="url(#mask0_159_35)">
<line x1="140.441" y1="62.3258" x2="-24.8929" y2="227.66" stroke="#212121" stroke-width="2"/>
<line x1="140.441" y1="-67.2847" x2="-24.8929" y2="98.0496" stroke="#212121" stroke-width="2"/>
<line x1="140.441" y1="-139.291" x2="-24.8929" y2="26.0438" stroke="#212121" stroke-width="2"/>
<line x1="140.441" y1="4.72108" x2="-24.8929" y2="170.055" stroke="#212121" stroke-width="2"/>
<line x1="140.441" y1="-9.68007" x2="-24.8929" y2="155.654" stroke="#212121" stroke-width="2"/>
<line x1="140.441" y1="19.1223" x2="-24.8929" y2="184.457" stroke="#212121" stroke-width="2"/>
<line x1="140.441" y1="33.5234" x2="-24.8929" y2="198.858" stroke="#212121" stroke-width="2"/>
<line x1="140.441" y1="47.9246" x2="-24.8929" y2="213.259" stroke="#212121" stroke-width="2"/>
<line x1="140.441" y1="-24.0812" x2="-24.8929" y2="141.253" stroke="#212121" stroke-width="2"/>
<line x1="140.441" y1="-38.4824" x2="-24.8929" y2="126.852" stroke="#212121" stroke-width="2"/>
<line x1="140.441" y1="-153.692" x2="-24.8929" y2="11.6426" stroke="#212121" stroke-width="2"/>
<line x1="140.441" y1="-110.488" x2="-24.8929" y2="54.8461" stroke="#212121" stroke-width="2"/>
<line x1="140.441" y1="-96.0871" x2="-24.8929" y2="69.2473" stroke="#212121" stroke-width="2"/>
<line x1="140.441" y1="-81.6859" x2="-24.8929" y2="83.6485" stroke="#212121" stroke-width="2"/>
<line x1="140.441" y1="-52.8836" x2="-24.8929" y2="112.451" stroke="#212121" stroke-width="2"/>
<line x1="140.441" y1="-124.889" x2="-24.8929" y2="40.445" stroke="#212121" stroke-width="2"/>
</g>
</svg>
