<svg width="45" height="45" viewBox="0 0 45 45" fill="none" xmlns="http://www.w3.org/2000/svg">
<g clip-path="url(#clip0_198_2934)">
<path fill-rule="evenodd" clip-rule="evenodd" d="M5.30191 1.4373C5.79403 0.94592 6.38495 0.56474 7.03553 0.319017C7.6861 0.0732939 8.38147 -0.031362 9.07555 0.0119848C9.76963 0.0553317 10.4466 0.245691 11.0615 0.570449C11.6765 0.895207 12.2154 1.34695 12.6425 1.89573L17.691 8.38136C18.6163 9.57105 18.9425 11.1207 18.5769 12.5832L17.0385 18.7426C16.9595 19.0617 16.9641 19.3957 17.0518 19.7124C17.1394 20.0292 17.3073 20.318 17.5391 20.551L24.4494 27.4614C24.6827 27.6936 24.972 27.8618 25.2893 27.9495C25.6066 28.0372 25.9412 28.0415 26.2607 27.962L32.4172 26.4235C33.139 26.2441 33.8921 26.2306 34.6199 26.3841C35.3476 26.5375 36.0312 26.8539 36.6191 27.3095L43.1047 32.3551C45.4363 34.1692 45.65 37.6145 43.5632 39.6985L40.655 42.6067C38.5738 44.6879 35.4632 45.602 32.5635 44.581C25.1404 41.9727 18.4012 37.7235 12.8478 32.1498C7.27452 26.5972 3.02534 19.8591 0.416598 12.437C-0.601527 9.54011 0.312535 6.42667 2.39379 4.34542L5.30191 1.4373Z" fill="#B71C1C"/>
</g>
<defs>
<clipPath id="clip0_198_2934">
<rect width="45" height="45" fill="white"/>
</clipPath>
</defs>
</svg>
