<svg width="24" height="24" viewBox="0 0 24 24" fill="none" xmlns="http://www.w3.org/2000/svg">
<path d="M18.223 3.08596C18.3391 3.20204 18.4312 3.33985 18.4941 3.49153C18.5569 3.64321 18.5892 3.80578 18.5892 3.96996C18.5892 4.13414 18.5569 4.29671 18.4941 4.44839C18.4312 4.60007 18.3391 4.73788 18.223 4.85396L17.08 5.99596H18.25C18.7425 5.99596 19.2303 6.09299 19.6853 6.28151C20.1403 6.47002 20.5538 6.74634 20.902 7.09466C21.2502 7.44299 21.5264 7.8565 21.7148 8.31159C21.9032 8.76668 22.0001 9.25442 22 9.74696V17.247C22 18.2415 21.6049 19.1953 20.9017 19.8986C20.1984 20.6019 19.2446 20.997 18.25 20.997H5.75C4.75544 20.997 3.80161 20.6019 3.09835 19.8986C2.39509 19.1953 2 18.2415 2 17.247V9.74696C2 8.7524 2.39509 7.79857 3.09835 7.09531C3.80161 6.39205 4.75544 5.99696 5.75 5.99696H6.916L5.775 4.85496C5.54724 4.61927 5.42115 4.30355 5.42391 3.97581C5.42666 3.64806 5.55803 3.33451 5.78973 3.10268C6.02142 2.87085 6.3349 2.7393 6.66265 2.73636C6.99039 2.73342 7.30618 2.85933 7.542 3.08696L10.194 5.73896C10.273 5.81796 10.339 5.90396 10.392 5.99596H13.605C13.658 5.90396 13.725 5.81596 13.804 5.73796L16.455 3.08596C16.5711 2.96985 16.7089 2.87775 16.8606 2.81491C17.0122 2.75207 17.1748 2.71973 17.339 2.71973C17.5032 2.71973 17.6658 2.75207 17.8174 2.81491C17.9691 2.87775 18.1069 2.96985 18.223 3.08596ZM18.25 8.50596H5.75C5.4345 8.50584 5.13062 8.62504 4.89934 8.83963C4.66805 9.05422 4.52647 9.34833 4.503 9.66296L4.5 9.75696V17.257C4.5 17.916 5.01 18.455 5.657 18.503L5.75 18.507H18.25C18.5655 18.5071 18.8694 18.3879 19.1007 18.1733C19.3319 17.9587 19.4735 17.6646 19.497 17.35L19.5 17.257V9.75696C19.5 9.06696 18.94 8.50696 18.25 8.50696M8.25 11.007C8.94 11.007 9.5 11.567 9.5 12.257V13.507C9.5 13.8385 9.3683 14.1564 9.13388 14.3908C8.89946 14.6253 8.58152 14.757 8.25 14.757C7.91848 14.757 7.60054 14.6253 7.36612 14.3908C7.1317 14.1564 7 13.8385 7 13.507V12.257C7 11.567 7.56 11.007 8.25 11.007ZM15.75 11.007C16.44 11.007 17 11.567 17 12.257V13.507C17 13.8385 16.8683 14.1564 16.6339 14.3908C16.3995 14.6253 16.0815 14.757 15.75 14.757C15.4185 14.757 15.1005 14.6253 14.8661 14.3908C14.6317 14.1564 14.5 13.8385 14.5 13.507V12.257C14.5 11.567 15.06 11.007 15.75 11.007Z" fill="#B71C1C"/>
</svg>
