<svg width="30" height="30" viewBox="0 0 30 30" fill="none" xmlns="http://www.w3.org/2000/svg">
<g clip-path="url(#clip0_226_28)">
<mask id="mask0_226_28" style="mask-type:alpha" maskUnits="userSpaceOnUse" x="0" y="-13" width="31" height="86">
<line x1="30.0899" y1="-12.4697" x2="1.53015" y2="16.0901" stroke="#212121" stroke-width="1.5"/>
<line x1="30.0899" y1="10.3587" x2="1.53015" y2="38.9184" stroke="#212121" stroke-width="1.5"/>
<line x1="30.0899" y1="-5.94729" x2="1.53015" y2="22.6125" stroke="#212121" stroke-width="1.5"/>
<line x1="30.0899" y1="26.6646" x2="1.53015" y2="55.2244" stroke="#212121" stroke-width="1.5"/>
<line x1="30.0899" y1="23.4035" x2="1.53015" y2="51.9632" stroke="#212121" stroke-width="1.5"/>
<line x1="30.0899" y1="29.9258" x2="1.53015" y2="58.4856" stroke="#212121" stroke-width="1.5"/>
<line x1="30.0899" y1="20.1423" x2="1.53015" y2="48.702" stroke="#212121" stroke-width="1.5"/>
<line x1="30.0899" y1="16.8811" x2="1.53015" y2="45.4408" stroke="#212121" stroke-width="1.5"/>
<line x1="30.0899" y1="-9.20848" x2="1.53015" y2="19.3513" stroke="#212121" stroke-width="1.5"/>
<line x1="30.0899" y1="0.575099" x2="1.53015" y2="29.1348" stroke="#212121" stroke-width="1.5"/>
<line x1="30.0899" y1="3.83629" x2="1.53015" y2="32.396" stroke="#212121" stroke-width="1.5"/>
<line x1="30.0899" y1="7.09748" x2="1.53015" y2="35.6572" stroke="#212121" stroke-width="1.5"/>
<line x1="30.0899" y1="13.6199" x2="1.53015" y2="42.1796" stroke="#212121" stroke-width="1.5"/>
<line x1="30.0899" y1="-2.68609" x2="1.53015" y2="25.8737" stroke="#212121" stroke-width="1.5"/>
</mask>
<g mask="url(#mask0_226_28)">
<path d="M8.2117 18.9317L5.78052 27.249H24.5902L22.159 18.9317L15.1853 16.2446L8.2117 18.9317Z" fill="#212121"/>
</g>
<path d="M20.6876 12.0221C20.6876 15.0608 18.2242 17.5242 15.1855 17.5242C12.1467 17.5242 9.68335 15.0608 9.68335 12.0221C9.68335 8.98332 12.1467 6.51993 15.1855 6.51993C18.2242 6.51993 20.6876 8.98332 20.6876 12.0221Z" fill="#B71C1C"/>
</g>
<defs>
<clipPath id="clip0_226_28">
<rect width="30" height="30" fill="white"/>
</clipPath>
</defs>
</svg>
