<svg width="24" height="24" viewBox="0 0 24 24" fill="none" xmlns="http://www.w3.org/2000/svg">
<path d="M5.458 18.1851C3.359 16.6771 2 14.4001 2 11.9081C2 7.3231 6.475 3.6001 12 3.6001C17.525 3.6001 22 7.3231 22 11.9081C22 16.4921 17.525 20.2161 12 20.2161C10.8926 20.2224 9.79032 20.0668 8.728 19.7541C8.636 19.7241 8.512 19.7241 8.42 19.7241C8.235 19.7241 8.05 19.7841 7.895 19.8771L5.704 21.1391C5.642 21.1691 5.58 21.2001 5.518 21.2001C5.42851 21.1993 5.34288 21.1635 5.2795 21.1003C5.21613 21.0371 5.18004 20.9516 5.179 20.8621C5.179 20.7691 5.209 20.7081 5.241 20.6161C5.271 20.5851 5.549 19.5691 5.704 18.9541C5.704 18.8921 5.734 18.8001 5.734 18.7391C5.734 18.4921 5.642 18.3081 5.457 18.1851M8.667 10.5121C9.384 10.5121 9.952 9.9431 9.952 9.2261C9.952 8.5081 9.384 7.9401 8.667 7.9401C7.949 7.9401 7.382 8.5081 7.382 9.2261C7.382 9.9431 7.949 10.5111 8.667 10.5111M15.333 10.5111C16.051 10.5111 16.618 9.9421 16.618 9.2251C16.618 8.5071 16.051 7.9391 15.333 7.9391C14.616 7.9391 14.048 8.5071 14.048 9.2251C14.048 9.9421 14.616 10.5111 15.333 10.5111Z" fill="#B71C1C"/>
</svg>
