<svg width="28" height="28" viewBox="0 0 28 28" fill="none" xmlns="http://www.w3.org/2000/svg">
<g clip-path="url(#clip0_174_1120)">
<path d="M12.2501 2.33337C14.112 2.33325 15.9364 2.85733 17.5144 3.84564C19.0924 4.83396 20.3603 6.24657 21.173 7.92182C21.9856 9.59706 22.3103 11.4673 22.1097 13.3184C21.9091 15.1695 21.1914 16.9268 20.0387 18.389L24.2994 22.6497C24.5119 22.8697 24.6295 23.1644 24.6268 23.4703C24.6242 23.7762 24.5015 24.0689 24.2852 24.2852C24.0689 24.5015 23.7762 24.6242 23.4704 24.6268C23.1645 24.6295 22.8698 24.5119 22.6497 24.2994L18.3891 20.0387C17.1471 21.0175 15.689 21.6851 14.1366 21.9858C12.5841 22.2865 10.9823 22.2115 9.46465 21.7672C7.94704 21.3229 6.55768 20.5222 5.41249 19.4317C4.26731 18.3413 3.39949 16.9928 2.88146 15.4987C2.36343 14.0047 2.21019 12.4084 2.43454 10.8431C2.6589 9.27778 3.25433 7.78881 4.17116 6.50042C5.08799 5.21203 6.29964 4.16157 7.70502 3.43668C9.11039 2.7118 10.6687 2.33351 12.2501 2.33337ZM12.2501 4.66671C10.2388 4.66671 8.30998 5.46566 6.88783 6.88781C5.46567 8.30996 4.66672 10.2388 4.66672 12.25C4.66672 14.2613 5.46567 16.1901 6.88783 17.6123C8.30998 19.0344 10.2388 19.8334 12.2501 19.8334C14.2613 19.8334 16.1901 19.0344 17.6123 17.6123C19.0344 16.1901 19.8334 14.2613 19.8334 12.25C19.8334 10.2388 19.0344 8.30996 17.6123 6.88781C16.1901 5.46566 14.2613 4.66671 12.2501 4.66671ZM12.2501 5.83337C13.9519 5.83337 15.584 6.50941 16.7873 7.71277C17.9907 8.91613 18.6667 10.5482 18.6667 12.25C18.6667 13.9518 17.9907 15.584 16.7873 16.7873C15.584 17.9907 13.9519 18.6667 12.2501 18.6667C10.5482 18.6667 8.91614 17.9907 7.71278 16.7873C6.50942 15.584 5.83339 13.9518 5.83339 12.25C5.83339 10.5482 6.50942 8.91613 7.71278 7.71277C8.91614 6.50941 10.5482 5.83337 12.2501 5.83337Z" fill="#B71C1C"/>
</g>
<defs>
<clipPath id="clip0_174_1120">
<rect width="28" height="28" fill="white"/>
</clipPath>
</defs>
</svg>
