<svg width="152" height="373" viewBox="0 0 152 373" fill="none" xmlns="http://www.w3.org/2000/svg">
<line x1="150.442" y1="209.106" x2="1.41423" y2="358.134" stroke="#212121" stroke-width="4"/>
<line x1="150.442" y1="1.41421" x2="1.41423" y2="150.442" stroke="#212121" stroke-width="4"/>
<line x1="150.442" y1="92.2796" x2="1.41423" y2="241.307" stroke="#212121" stroke-width="4"/>
<line x1="150.442" y1="27.3758" x2="1.41423" y2="176.403" stroke="#212121" stroke-width="4"/>
<line x1="150.442" y1="157.184" x2="1.41423" y2="306.211" stroke="#212121" stroke-width="4"/>
<line x1="150.442" y1="144.203" x2="1.41423" y2="293.23" stroke="#212121" stroke-width="4"/>
<line x1="150.442" y1="170.164" x2="1.41423" y2="319.192" stroke="#212121" stroke-width="4"/>
<line x1="150.442" y1="183.145" x2="1.41423" y2="332.172" stroke="#212121" stroke-width="4"/>
<line x1="150.442" y1="196.126" x2="1.41423" y2="345.153" stroke="#212121" stroke-width="4"/>
<line x1="150.442" y1="131.222" x2="1.41423" y2="280.249" stroke="#212121" stroke-width="4"/>
<line x1="150.442" y1="118.241" x2="1.41423" y2="267.268" stroke="#212121" stroke-width="4"/>
<line x1="150.442" y1="222.087" x2="1.41423" y2="371.115" stroke="#212121" stroke-width="4"/>
<line x1="150.442" y1="14.3949" x2="1.41423" y2="163.422" stroke="#212121" stroke-width="4"/>
<line x1="150.442" y1="53.3373" x2="1.41423" y2="202.365" stroke="#212121" stroke-width="4"/>
<line x1="150.442" y1="66.318" x2="1.41423" y2="215.345" stroke="#212121" stroke-width="4"/>
<line x1="150.442" y1="79.2989" x2="1.41423" y2="228.326" stroke="#212121" stroke-width="4"/>
<line x1="150.442" y1="105.26" x2="1.41423" y2="254.288" stroke="#212121" stroke-width="4"/>
<line x1="150.442" y1="40.3565" x2="1.41423" y2="189.384" stroke="#212121" stroke-width="4"/>
</svg>
