<svg width="90" height="89" viewBox="0 0 90 89" fill="none" xmlns="http://www.w3.org/2000/svg">
<mask id="mask0_27_85" style="mask-type:alpha" maskUnits="userSpaceOnUse" x="0" y="0" width="90" height="90">
<rect width="90" height="89.1346" fill="#D9D9D9"/>
</mask>
<g mask="url(#mask0_27_85)">
<line x1="109.774" y1="68.9142" x2="-39.2537" y2="217.942" stroke="#212121" stroke-width="4"/>
<line x1="109.774" y1="-138.778" x2="-39.2537" y2="10.2492" stroke="#212121" stroke-width="4"/>
<line x1="109.774" y1="-47.9127" x2="-39.2537" y2="101.115" stroke="#212121" stroke-width="4"/>
<line x1="109.774" y1="-112.817" x2="-39.2537" y2="36.2108" stroke="#212121" stroke-width="4"/>
<line x1="109.774" y1="16.9911" x2="-39.2537" y2="166.018" stroke="#212121" stroke-width="4"/>
<line x1="109.774" y1="4.0104" x2="-39.2537" y2="153.038" stroke="#212121" stroke-width="4"/>
<line x1="109.774" y1="29.9718" x2="-39.2537" y2="178.999" stroke="#212121" stroke-width="4"/>
<line x1="109.774" y1="42.9527" x2="-39.2537" y2="191.98" stroke="#212121" stroke-width="4"/>
<line x1="109.774" y1="55.9334" x2="-39.2537" y2="204.961" stroke="#212121" stroke-width="4"/>
<line x1="109.774" y1="-8.97043" x2="-39.2537" y2="140.057" stroke="#212121" stroke-width="4"/>
<line x1="109.774" y1="-21.9511" x2="-39.2537" y2="127.076" stroke="#212121" stroke-width="4"/>
<line x1="109.774" y1="81.8949" x2="-39.2537" y2="230.922" stroke="#212121" stroke-width="4"/>
<line x1="109.774" y1="-125.797" x2="-39.2537" y2="23.23" stroke="#212121" stroke-width="4"/>
<line x1="109.774" y1="-86.855" x2="-39.2537" y2="62.1723" stroke="#212121" stroke-width="4"/>
<line x1="109.774" y1="-73.8742" x2="-39.2537" y2="75.1531" stroke="#212121" stroke-width="4"/>
<line x1="109.774" y1="-60.8935" x2="-39.2537" y2="88.1338" stroke="#212121" stroke-width="4"/>
<line x1="109.774" y1="-34.932" x2="-39.2537" y2="114.095" stroke="#212121" stroke-width="4"/>
<line x1="109.774" y1="-99.8358" x2="-39.2537" y2="49.1915" stroke="#212121" stroke-width="4"/>
</g>
<rect x="25" y="25" width="40" height="40" rx="20" fill="white"/>
<path d="M45 61C42.8133 61 40.7467 60.5797 38.8 59.7392C36.8533 58.8987 35.1531 57.752 33.6992 56.2992C32.2464 54.8464 31.0997 53.1467 30.2592 51.2C29.4187 49.2533 28.9989 47.1867 29 45C29 42.7867 29.4203 40.7131 30.2608 38.7792C31.1013 36.8453 32.248 35.1525 33.7008 33.7008C35.1536 32.2469 36.8528 31.1003 38.7984 30.2608C40.744 29.4213 42.8112 29.0011 45 29C47.2133 29 49.2869 29.4203 51.2208 30.2608C53.1547 31.1013 54.8475 32.248 56.2992 33.7008C57.7531 35.1536 58.8997 36.8469 59.7392 38.7808C60.5787 40.7147 60.9989 42.7877 61 45C61 47.1867 60.5797 49.2533 59.7392 51.2C58.8987 53.1467 57.752 54.8469 56.2992 56.3008C54.8464 57.7536 53.1531 58.9003 51.2192 59.7408C49.2853 60.5813 47.2123 61.0011 45 61ZM45 57.72C45.6933 56.76 46.2933 55.76 46.8 54.72C47.3067 53.68 47.72 52.5733 48.04 51.4H41.96C42.28 52.5733 42.6933 53.68 43.2 54.72C43.7067 55.76 44.3067 56.76 45 57.72ZM40.84 57.08C40.36 56.2 39.9397 55.2864 39.5792 54.3392C39.2187 53.392 38.9189 52.4123 38.68 51.4H33.96C34.7333 52.7333 35.7003 53.8933 36.8608 54.88C38.0213 55.8667 39.3477 56.6 40.84 57.08ZM49.16 57.08C50.6533 56.6 51.9803 55.8667 53.1408 54.88C54.3013 53.8933 55.2677 52.7333 56.04 51.4H51.32C51.08 52.4133 50.7803 53.3936 50.4208 54.3408C50.0613 55.288 49.6411 56.2011 49.16 57.08ZM32.6 48.2H38.04C37.96 47.6667 37.8997 47.1397 37.8592 46.6192C37.8187 46.0987 37.7989 45.5589 37.8 45C37.8 44.44 37.8203 43.9003 37.8608 43.3808C37.9013 42.8613 37.9611 42.3344 38.04 41.8H32.6C32.4667 42.3333 32.3664 42.8603 32.2992 43.3808C32.232 43.9013 32.1989 44.4411 32.2 45C32.2 45.56 32.2336 46.0997 32.3008 46.6192C32.368 47.1387 32.4677 47.6656 32.6 48.2ZM41.24 48.2H48.76C48.84 47.6667 48.9003 47.1397 48.9408 46.6192C48.9813 46.0987 49.0011 45.5589 49 45C49 44.44 48.9797 43.9003 48.9392 43.3808C48.8987 42.8613 48.8389 42.3344 48.76 41.8H41.24C41.16 42.3333 41.0997 42.8603 41.0592 43.3808C41.0187 43.9013 40.9989 44.4411 41 45C41 45.56 41.0203 46.0997 41.0608 46.6192C41.1013 47.1387 41.1611 47.6656 41.24 48.2ZM51.96 48.2H57.4C57.5333 47.6667 57.6336 47.1397 57.7008 46.6192C57.768 46.0987 57.8011 45.5589 57.8 45C57.8 44.44 57.7664 43.9003 57.6992 43.3808C57.632 42.8613 57.5323 42.3344 57.4 41.8H51.96C52.04 42.3333 52.1003 42.8603 52.1408 43.3808C52.1813 43.9013 52.2011 44.4411 52.2 45C52.2 45.56 52.1797 46.0997 52.1392 46.6192C52.0987 47.1387 52.0389 47.6656 51.96 48.2ZM51.32 38.6H56.04C55.2667 37.2667 54.3003 36.1067 53.1408 35.12C51.9813 34.1333 50.6544 33.4 49.16 32.92C49.64 33.8 50.0603 34.7136 50.4208 35.6608C50.7813 36.608 51.0811 37.5877 51.32 38.6ZM41.96 38.6H48.04C47.72 37.4267 47.3067 36.32 46.8 35.28C46.2933 34.24 45.6933 33.24 45 32.28C44.3067 33.24 43.7067 34.24 43.2 35.28C42.6933 36.32 42.28 37.4267 41.96 38.6ZM33.96 38.6H38.68C38.92 37.5867 39.2203 36.6064 39.5808 35.6592C39.9413 34.712 40.3611 33.7989 40.84 32.92C39.3467 33.4 38.0197 34.1333 36.8592 35.12C35.6987 36.1067 34.7323 37.2667 33.96 38.6Z" fill="#B71C1C"/>
</svg>
