<svg width="2000" height="600" viewBox="0 0 2000 600" fill="none" xmlns="http://www.w3.org/2000/svg">
<g clip-path="url(#clip0_2_2)">
<rect x="400" y="200" width="200" height="400" fill="#F7F7F7"/>
<rect x="200" y="200" width="200" height="200" fill="#F7F7F7"/>
<mask id="mask0_2_2" style="mask-type:alpha" maskUnits="userSpaceOnUse" x="-103" y="-694" width="801" height="1997">
<line x1="683.143" y1="148.142" x2="-88.8573" y2="920.142" stroke="black" stroke-width="40"/>
<line x1="683.143" y1="56.1421" x2="-88.8573" y2="828.142" stroke="black" stroke-width="40"/>
<line x1="683.143" y1="240.142" x2="-88.8573" y2="1012.14" stroke="black" stroke-width="40"/>
<line x1="683.143" y1="332.142" x2="-88.8573" y2="1104.14" stroke="black" stroke-width="40"/>
<line x1="683.143" y1="424.142" x2="-88.8573" y2="1196.14" stroke="black" stroke-width="40"/>
<line x1="683.143" y1="-35.8579" x2="-88.8573" y2="736.142" stroke="black" stroke-width="40"/>
<line x1="683.143" y1="-127.858" x2="-88.8573" y2="644.142" stroke="black" stroke-width="40"/>
<line x1="683.143" y1="516.142" x2="-88.8572" y2="1288.14" stroke="black" stroke-width="40"/>
<line x1="683.143" y1="-679.858" x2="-88.8572" y2="92.1422" stroke="black" stroke-width="40"/>
<line x1="683.143" y1="-495.858" x2="-88.8573" y2="276.142" stroke="black" stroke-width="40"/>
<line x1="683.143" y1="-403.858" x2="-88.8572" y2="368.142" stroke="black" stroke-width="40"/>
<line x1="683.143" y1="-311.858" x2="-88.8572" y2="460.142" stroke="black" stroke-width="40"/>
<line x1="683.143" y1="-219.858" x2="-88.8572" y2="552.142" stroke="black" stroke-width="40"/>
<line x1="683.143" y1="-587.858" x2="-88.8573" y2="184.142" stroke="black" stroke-width="40"/>
</mask>
<g mask="url(#mask0_2_2)">
<path fill-rule="evenodd" clip-rule="evenodd" d="M-0.00012207 0H200H400V200H200V400H400V600H200H-0.00012207V400V200V0Z" fill="#212121"/>
</g>
<mask id="mask1_2_2" style="mask-type:alpha" maskUnits="userSpaceOnUse" x="-103" y="-666" width="787" height="1983">
<line x1="676.071" y1="169.071" x2="-95.9289" y2="941.071" stroke="black" stroke-width="20"/>
<line x1="676.071" y1="77.0711" x2="-95.9289" y2="849.071" stroke="black" stroke-width="20"/>
<line x1="676.071" y1="261.071" x2="-95.9289" y2="1033.07" stroke="black" stroke-width="20"/>
<line x1="676.071" y1="353.071" x2="-95.9289" y2="1125.07" stroke="black" stroke-width="20"/>
<line x1="676.071" y1="445.071" x2="-95.9289" y2="1217.07" stroke="black" stroke-width="20"/>
<line x1="676.071" y1="-14.9289" x2="-95.9289" y2="757.071" stroke="black" stroke-width="20"/>
<line x1="676.071" y1="-106.929" x2="-95.9289" y2="665.071" stroke="black" stroke-width="20"/>
<line x1="676.071" y1="537.071" x2="-95.9289" y2="1309.07" stroke="black" stroke-width="20"/>
<line x1="676.071" y1="-658.929" x2="-95.9289" y2="113.071" stroke="black" stroke-width="20"/>
<line x1="676.071" y1="-474.929" x2="-95.9289" y2="297.071" stroke="black" stroke-width="20"/>
<line x1="676.071" y1="-382.929" x2="-95.9289" y2="389.071" stroke="black" stroke-width="20"/>
<line x1="676.071" y1="-290.929" x2="-95.9289" y2="481.071" stroke="black" stroke-width="20"/>
<line x1="676.071" y1="-198.929" x2="-95.9289" y2="573.071" stroke="black" stroke-width="20"/>
<line x1="676.071" y1="-566.929" x2="-95.9289" y2="205.071" stroke="black" stroke-width="20"/>
</mask>
<g mask="url(#mask1_2_2)">
<path fill-rule="evenodd" clip-rule="evenodd" d="M600 0H400V200H200V400H400V600H600V400V200V0Z" fill="#212121"/>
</g>
<path d="M399.5 0H-0.00012207V399.5L399.5 0Z" fill="#212121"/>
<rect x="200" width="200" height="200" fill="#212121"/>
<rect x="400" width="200" height="200" fill="#F7F7F7"/>
<mask id="mask2_2_2" style="mask-type:alpha" maskUnits="userSpaceOnUse" x="400" y="-206" width="412" height="412">
<circle cx="606" r="206" fill="#A14747"/>
</mask>
<g mask="url(#mask2_2_2)">
<rect x="400" width="200" height="200" fill="#B71C1C"/>
</g>
<path d="M750.736 155.328C750.736 146.624 752.741 138.816 756.752 131.904C760.848 124.992 766.352 119.616 773.264 115.776C780.261 111.851 787.899 109.888 796.176 109.888C805.648 109.888 814.053 112.235 821.392 116.928C828.816 121.536 834.192 128.107 837.52 136.64H819.984C817.68 131.947 814.48 128.448 810.384 126.144C806.288 123.84 801.552 122.688 796.176 122.688C790.288 122.688 785.04 124.011 780.432 126.656C775.824 129.301 772.197 133.099 769.552 138.048C766.992 142.997 765.712 148.757 765.712 155.328C765.712 161.899 766.992 167.659 769.552 172.608C772.197 177.557 775.824 181.397 780.432 184.128C785.04 186.773 790.288 188.096 796.176 188.096C801.552 188.096 806.288 186.944 810.384 184.64C814.48 182.336 817.68 178.837 819.984 174.144H837.52C834.192 182.677 828.816 189.248 821.392 193.856C814.053 198.464 805.648 200.768 796.176 200.768C787.813 200.768 780.176 198.848 773.264 195.008C766.352 191.083 760.848 185.664 756.752 178.752C752.741 171.84 750.736 164.032 750.736 155.328ZM869.192 105.28V200H854.6V105.28H869.192ZM895.774 120.128C893.129 120.128 890.91 119.232 889.118 117.44C887.326 115.648 886.43 113.429 886.43 110.784C886.43 108.139 887.326 105.92 889.118 104.128C890.91 102.336 893.129 101.44 895.774 101.44C898.334 101.44 900.51 102.336 902.302 104.128C904.094 105.92 904.99 108.139 904.99 110.784C904.99 113.429 904.094 115.648 902.302 117.44C900.51 119.232 898.334 120.128 895.774 120.128ZM902.942 129.472V200H888.35V129.472H902.942ZM1007.48 128.32C1013.02 128.32 1017.97 129.472 1022.32 131.776C1026.76 134.08 1030.22 137.493 1032.69 142.016C1035.25 146.539 1036.53 152 1036.53 158.4V200H1022.07V160.576C1022.07 154.261 1020.49 149.44 1017.33 146.112C1014.17 142.699 1009.87 140.992 1004.4 140.992C998.943 140.992 994.591 142.699 991.348 146.112C988.191 149.44 986.612 154.261 986.612 160.576V200H972.148V160.576C972.148 154.261 970.569 149.44 967.412 146.112C964.255 142.699 959.945 140.992 954.484 140.992C949.023 140.992 944.671 142.699 941.428 146.112C938.271 149.44 936.692 154.261 936.692 160.576V200H922.1V129.472H936.692V137.536C939.081 134.635 942.111 132.373 945.78 130.752C949.449 129.131 953.375 128.32 957.556 128.32C963.188 128.32 968.223 129.515 972.66 131.904C977.097 134.293 980.511 137.749 982.9 142.272C985.033 138.005 988.361 134.635 992.884 132.16C997.407 129.6 1002.27 128.32 1007.48 128.32ZM1050.24 164.416C1050.24 157.333 1051.69 151.061 1054.59 145.6C1057.57 140.139 1061.59 135.915 1066.62 132.928C1071.74 129.856 1077.37 128.32 1083.52 128.32C1089.06 128.32 1093.88 129.429 1097.98 131.648C1102.16 133.781 1105.49 136.469 1107.96 139.712V129.472H1122.68V200H1107.96V189.504C1105.49 192.832 1102.12 195.605 1097.85 197.824C1093.59 200.043 1088.72 201.152 1083.26 201.152C1077.2 201.152 1071.65 199.616 1066.62 196.544C1061.59 193.387 1057.57 189.035 1054.59 183.488C1051.69 177.856 1050.24 171.499 1050.24 164.416ZM1107.96 164.672C1107.96 159.808 1106.94 155.584 1104.89 152C1102.93 148.416 1100.33 145.685 1097.08 143.808C1093.84 141.931 1090.34 140.992 1086.59 140.992C1082.83 140.992 1079.33 141.931 1076.09 143.808C1072.85 145.6 1070.2 148.288 1068.16 151.872C1066.19 155.371 1065.21 159.552 1065.21 164.416C1065.21 169.28 1066.19 173.547 1068.16 177.216C1070.2 180.885 1072.85 183.701 1076.09 185.664C1079.42 187.541 1082.92 188.48 1086.59 188.48C1090.34 188.48 1093.84 187.541 1097.08 185.664C1100.33 183.787 1102.93 181.056 1104.89 177.472C1106.94 173.803 1107.96 169.536 1107.96 164.672ZM1158.87 141.376V180.416C1158.87 183.061 1159.47 184.981 1160.67 186.176C1161.95 187.285 1164.08 187.84 1167.07 187.84H1176.03V200H1164.51C1157.94 200 1152.9 198.464 1149.4 195.392C1145.9 192.32 1144.15 187.328 1144.15 180.416V141.376H1135.83V129.472H1144.15V111.936H1158.87V129.472H1176.03V141.376H1158.87ZM1254.12 163.008C1254.12 165.653 1253.94 168.043 1253.6 170.176H1199.72C1200.14 175.808 1202.23 180.331 1205.99 183.744C1209.74 187.157 1214.35 188.864 1219.81 188.864C1227.66 188.864 1233.21 185.579 1236.45 179.008H1252.19C1250.06 185.493 1246.18 190.827 1240.55 195.008C1235 199.104 1228.09 201.152 1219.81 201.152C1213.07 201.152 1207.01 199.659 1201.64 196.672C1196.34 193.6 1192.16 189.333 1189.09 183.872C1186.1 178.325 1184.61 171.925 1184.61 164.672C1184.61 157.419 1186.06 151.061 1188.96 145.6C1191.95 140.053 1196.09 135.787 1201.38 132.8C1206.76 129.813 1212.9 128.32 1219.81 128.32C1226.47 128.32 1232.4 129.771 1237.6 132.672C1242.81 135.573 1246.86 139.669 1249.76 144.96C1252.66 150.165 1254.12 156.181 1254.12 163.008ZM1238.88 158.4C1238.8 153.024 1236.88 148.715 1233.12 145.472C1229.37 142.229 1224.72 140.608 1219.17 140.608C1214.14 140.608 1209.83 142.229 1206.24 145.472C1202.66 148.629 1200.53 152.939 1199.84 158.4H1238.88ZM1322.62 147.52V159.808H1270.01V147.52H1322.62ZM1357.94 139.712C1360.08 136.128 1362.89 133.355 1366.39 131.392C1369.97 129.344 1374.2 128.32 1379.06 128.32V143.424H1375.35C1369.63 143.424 1365.28 144.875 1362.29 147.776C1359.39 150.677 1357.94 155.712 1357.94 162.88V200H1343.35V129.472H1357.94V139.712ZM1457.12 163.008C1457.12 165.653 1456.94 168.043 1456.6 170.176H1402.72C1403.14 175.808 1405.23 180.331 1408.99 183.744C1412.74 187.157 1417.35 188.864 1422.81 188.864C1430.66 188.864 1436.21 185.579 1439.45 179.008H1455.19C1453.06 185.493 1449.18 190.827 1443.55 195.008C1438 199.104 1431.09 201.152 1422.81 201.152C1416.07 201.152 1410.01 199.659 1404.64 196.672C1399.34 193.6 1395.16 189.333 1392.09 183.872C1389.1 178.325 1387.61 171.925 1387.61 164.672C1387.61 157.419 1389.06 151.061 1391.96 145.6C1394.95 140.053 1399.09 135.787 1404.38 132.8C1409.76 129.813 1415.9 128.32 1422.81 128.32C1429.47 128.32 1435.4 129.771 1440.6 132.672C1445.81 135.573 1449.86 139.669 1452.76 144.96C1455.66 150.165 1457.12 156.181 1457.12 163.008ZM1441.88 158.4C1441.8 153.024 1439.88 148.715 1436.12 145.472C1432.37 142.229 1427.72 140.608 1422.17 140.608C1417.14 140.608 1412.83 142.229 1409.24 145.472C1405.66 148.629 1403.53 152.939 1402.84 158.4H1441.88ZM1497.08 201.152C1491.53 201.152 1486.54 200.171 1482.1 198.208C1477.75 196.16 1474.29 193.429 1471.73 190.016C1469.17 186.517 1467.81 182.635 1467.64 178.368H1482.74C1483 181.355 1484.4 183.872 1486.96 185.92C1489.61 187.883 1492.89 188.864 1496.82 188.864C1500.92 188.864 1504.07 188.096 1506.29 186.56C1508.6 184.939 1509.75 182.891 1509.75 180.416C1509.75 177.771 1508.47 175.808 1505.91 174.528C1503.43 173.248 1499.46 171.84 1494 170.304C1488.71 168.853 1484.4 167.445 1481.08 166.08C1477.75 164.715 1474.85 162.624 1472.37 159.808C1469.98 156.992 1468.79 153.28 1468.79 148.672C1468.79 144.917 1469.9 141.504 1472.12 138.432C1474.33 135.275 1477.49 132.8 1481.59 131.008C1485.77 129.216 1490.55 128.32 1495.92 128.32C1503.94 128.32 1510.39 130.368 1515.25 134.464C1520.2 138.475 1522.85 143.979 1523.19 150.976H1508.6C1508.34 147.819 1507.06 145.301 1504.76 143.424C1502.45 141.547 1499.34 140.608 1495.41 140.608C1491.57 140.608 1488.63 141.333 1486.58 142.784C1484.53 144.235 1483.51 146.155 1483.51 148.544C1483.51 150.421 1484.19 152 1485.56 153.28C1486.92 154.56 1488.58 155.584 1490.55 156.352C1492.51 157.035 1495.41 157.931 1499.25 159.04C1504.37 160.405 1508.55 161.813 1511.8 163.264C1515.12 164.629 1517.98 166.677 1520.37 169.408C1522.76 172.139 1524 175.765 1524.08 180.288C1524.08 184.299 1522.97 187.883 1520.76 191.04C1518.54 194.197 1515.38 196.672 1511.28 198.464C1507.27 200.256 1502.54 201.152 1497.08 201.152ZM1547.27 120.128C1544.63 120.128 1542.41 119.232 1540.62 117.44C1538.83 115.648 1537.93 113.429 1537.93 110.784C1537.93 108.139 1538.83 105.92 1540.62 104.128C1542.41 102.336 1544.63 101.44 1547.27 101.44C1549.83 101.44 1552.01 102.336 1553.8 104.128C1555.59 105.92 1556.49 108.139 1556.49 110.784C1556.49 113.429 1555.59 115.648 1553.8 117.44C1552.01 119.232 1549.83 120.128 1547.27 120.128ZM1554.44 129.472V200H1539.85V129.472H1554.44ZM1588.19 105.28V200H1573.6V105.28H1588.19ZM1614.77 120.128C1612.13 120.128 1609.91 119.232 1608.12 117.44C1606.33 115.648 1605.43 113.429 1605.43 110.784C1605.43 108.139 1606.33 105.92 1608.12 104.128C1609.91 102.336 1612.13 101.44 1614.77 101.44C1617.33 101.44 1619.51 102.336 1621.3 104.128C1623.09 105.92 1623.99 108.139 1623.99 110.784C1623.99 113.429 1623.09 115.648 1621.3 117.44C1619.51 119.232 1617.33 120.128 1614.77 120.128ZM1621.94 129.472V200H1607.35V129.472H1621.94ZM1705.74 163.008C1705.74 165.653 1705.57 168.043 1705.23 170.176H1651.34C1651.77 175.808 1653.86 180.331 1657.61 183.744C1661.37 187.157 1665.97 188.864 1671.44 188.864C1679.29 188.864 1684.83 185.579 1688.08 179.008H1703.82C1701.69 185.493 1697.8 190.827 1692.17 195.008C1686.63 199.104 1679.71 201.152 1671.44 201.152C1664.69 201.152 1658.64 199.659 1653.26 196.672C1647.97 193.6 1643.79 189.333 1640.72 183.872C1637.73 178.325 1636.24 171.925 1636.24 164.672C1636.24 157.419 1637.69 151.061 1640.59 145.6C1643.57 140.053 1647.71 135.787 1653 132.8C1658.38 129.813 1664.52 128.32 1671.44 128.32C1678.09 128.32 1684.02 129.771 1689.23 132.672C1694.43 135.573 1698.49 139.669 1701.39 144.96C1704.29 150.165 1705.74 156.181 1705.74 163.008ZM1690.51 158.4C1690.42 153.024 1688.5 148.715 1684.75 145.472C1680.99 142.229 1676.34 140.608 1670.8 140.608C1665.76 140.608 1661.45 142.229 1657.87 145.472C1654.28 148.629 1652.15 152.939 1651.47 158.4H1690.51ZM1755.68 128.32C1761.23 128.32 1766.18 129.472 1770.53 131.776C1774.97 134.08 1778.43 137.493 1780.9 142.016C1783.37 146.539 1784.61 152 1784.61 158.4V200H1770.15V160.576C1770.15 154.261 1768.57 149.44 1765.41 146.112C1762.25 142.699 1757.95 140.992 1752.48 140.992C1747.02 140.992 1742.67 142.699 1739.43 146.112C1736.27 149.44 1734.69 154.261 1734.69 160.576V200H1720.1V129.472H1734.69V137.536C1737.08 134.635 1740.11 132.373 1743.78 130.752C1747.53 129.131 1751.5 128.32 1755.68 128.32ZM1820.25 141.376V180.416C1820.25 183.061 1820.85 184.981 1822.04 186.176C1823.32 187.285 1825.45 187.84 1828.44 187.84H1837.4V200H1825.88C1819.31 200 1814.28 198.464 1810.78 195.392C1807.28 192.32 1805.53 187.328 1805.53 180.416V141.376H1797.21V129.472H1805.53V111.936H1820.25V129.472H1837.4V141.376H1820.25ZM826.64 256.04V345H812.048V306.088H770.192V345H755.6V256.04H770.192V294.184H812.048V256.04H826.64ZM910.49 308.008C910.49 310.653 910.319 313.043 909.978 315.176H856.09C856.517 320.808 858.607 325.331 862.362 328.744C866.117 332.157 870.725 333.864 876.186 333.864C884.037 333.864 889.583 330.579 892.826 324.008H908.57C906.437 330.493 902.554 335.827 896.922 340.008C891.375 344.104 884.463 346.152 876.186 346.152C869.445 346.152 863.386 344.659 858.01 341.672C852.719 338.6 848.538 334.333 845.466 328.872C842.479 323.325 840.986 316.925 840.986 309.672C840.986 302.419 842.437 296.061 845.338 290.6C848.325 285.053 852.463 280.787 857.754 277.8C863.13 274.813 869.274 273.32 876.186 273.32C882.842 273.32 888.773 274.771 893.978 277.672C899.183 280.573 903.237 284.669 906.138 289.96C909.039 295.165 910.49 301.181 910.49 308.008ZM895.258 303.4C895.173 298.024 893.253 293.715 889.498 290.472C885.743 287.229 881.093 285.608 875.546 285.608C870.511 285.608 866.202 287.229 862.618 290.472C859.034 293.629 856.901 297.939 856.218 303.4H895.258ZM919.986 309.416C919.986 302.333 921.437 296.061 924.338 290.6C927.325 285.139 931.335 280.915 936.37 277.928C941.49 274.856 947.122 273.32 953.266 273.32C958.813 273.32 963.634 274.429 967.73 276.648C971.911 278.781 975.239 281.469 977.714 284.712V274.472H992.434V345H977.714V334.504C975.239 337.832 971.869 340.605 967.602 342.824C963.335 345.043 958.471 346.152 953.01 346.152C946.951 346.152 941.405 344.616 936.37 341.544C931.335 338.387 927.325 334.035 924.338 328.488C921.437 322.856 919.986 316.499 919.986 309.416ZM977.714 309.672C977.714 304.808 976.69 300.584 974.642 297C972.679 293.416 970.077 290.685 966.834 288.808C963.591 286.931 960.093 285.992 956.338 285.992C952.583 285.992 949.085 286.931 945.842 288.808C942.599 290.6 939.954 293.288 937.906 296.872C935.943 300.371 934.962 304.552 934.962 309.416C934.962 314.28 935.943 318.547 937.906 322.216C939.954 325.885 942.599 328.701 945.842 330.664C949.17 332.541 952.669 333.48 956.338 333.48C960.093 333.48 963.591 332.541 966.834 330.664C970.077 328.787 972.679 326.056 974.642 322.472C976.69 318.803 977.714 314.536 977.714 309.672ZM1026.19 250.28V345H1011.6V250.28H1026.19ZM1062.37 286.376V325.416C1062.37 328.061 1062.97 329.981 1064.17 331.176C1065.45 332.285 1067.58 332.84 1070.57 332.84H1079.53V345H1068.01C1061.44 345 1056.4 343.464 1052.9 340.392C1049.4 337.32 1047.65 332.328 1047.65 325.416V286.376H1039.33V274.472H1047.65V256.936H1062.37V274.472H1079.53V286.376H1062.37ZM1129.46 273.32C1134.83 273.32 1139.61 274.472 1143.79 276.776C1148.06 279.08 1151.39 282.493 1153.78 287.016C1156.25 291.539 1157.49 297 1157.49 303.4V345H1143.02V305.576C1143.02 299.261 1141.44 294.44 1138.29 291.112C1135.13 287.699 1130.82 285.992 1125.36 285.992C1119.9 285.992 1115.55 287.699 1112.3 291.112C1109.15 294.44 1107.57 299.261 1107.57 305.576V345H1092.98V250.28H1107.57V282.664C1110.04 279.677 1113.16 277.373 1116.91 275.752C1120.75 274.131 1124.93 273.32 1129.46 273.32ZM1239.59 274.472L1196.32 378.152H1181.22L1195.56 343.848L1167.78 274.472H1184.04L1203.88 328.232L1224.48 274.472H1239.59ZM770.192 412.816V438.928H800.912V450.832H770.192V478.096H804.752V490H755.6V400.912H804.752V412.816H770.192ZM858.309 418.32C863.856 418.32 868.805 419.472 873.157 421.776C877.594 424.08 881.05 427.493 883.525 432.016C886 436.539 887.237 442 887.237 448.4V490H872.773V450.576C872.773 444.261 871.194 439.44 868.037 436.112C864.88 432.699 860.57 430.992 855.109 430.992C849.648 430.992 845.296 432.699 842.053 436.112C838.896 439.44 837.317 444.261 837.317 450.576V490H822.725V419.472H837.317V427.536C839.706 424.635 842.736 422.373 846.405 420.752C850.16 419.131 854.128 418.32 858.309 418.32ZM970.49 453.008C970.49 455.653 970.319 458.043 969.978 460.176H916.09C916.517 465.808 918.607 470.331 922.362 473.744C926.117 477.157 930.725 478.864 936.186 478.864C944.037 478.864 949.583 475.579 952.826 469.008H968.57C966.437 475.493 962.554 480.827 956.922 485.008C951.375 489.104 944.463 491.152 936.186 491.152C929.445 491.152 923.386 489.659 918.01 486.672C912.719 483.6 908.538 479.333 905.466 473.872C902.479 468.325 900.986 461.925 900.986 454.672C900.986 447.419 902.437 441.061 905.338 435.6C908.325 430.053 912.463 425.787 917.754 422.8C923.13 419.813 929.274 418.32 936.186 418.32C942.842 418.32 948.773 419.771 953.978 422.672C959.183 425.573 963.237 429.669 966.138 434.96C969.039 440.165 970.49 446.181 970.49 453.008ZM955.258 448.4C955.173 443.024 953.253 438.715 949.498 435.472C945.743 432.229 941.093 430.608 935.546 430.608C930.511 430.608 926.202 432.229 922.618 435.472C919.034 438.629 916.901 442.939 916.218 448.4H955.258ZM999.442 429.712C1001.58 426.128 1004.39 423.355 1007.89 421.392C1011.47 419.344 1015.7 418.32 1020.56 418.32V433.424H1016.85C1011.13 433.424 1006.78 434.875 1003.79 437.776C1000.89 440.677 999.442 445.712 999.442 452.88V490H984.85V419.472H999.442V429.712ZM1062.39 418.32C1067.85 418.32 1072.67 419.429 1076.86 421.648C1081.12 423.781 1084.45 426.469 1086.84 429.712V419.472H1101.56V491.152C1101.56 497.637 1100.19 503.397 1097.46 508.432C1094.73 513.552 1090.76 517.563 1085.56 520.464C1080.44 523.365 1074.3 524.816 1067.13 524.816C1057.57 524.816 1049.63 522.555 1043.32 518.032C1037 513.595 1033.42 507.536 1032.57 499.856H1047.03C1048.14 503.525 1050.49 506.469 1054.07 508.688C1057.74 510.992 1062.09 512.144 1067.13 512.144C1073.02 512.144 1077.75 510.352 1081.34 506.768C1085 503.184 1086.84 497.979 1086.84 491.152V479.376C1084.36 482.704 1080.99 485.52 1076.73 487.824C1072.55 490.043 1067.77 491.152 1062.39 491.152C1056.25 491.152 1050.62 489.616 1045.5 486.544C1040.46 483.387 1036.45 479.035 1033.46 473.488C1030.56 467.856 1029.11 461.499 1029.11 454.416C1029.11 447.333 1030.56 441.061 1033.46 435.6C1036.45 430.139 1040.46 425.915 1045.5 422.928C1050.62 419.856 1056.25 418.32 1062.39 418.32ZM1086.84 454.672C1086.84 449.808 1085.82 445.584 1083.77 442C1081.8 438.416 1079.2 435.685 1075.96 433.808C1072.72 431.931 1069.22 430.992 1065.46 430.992C1061.71 430.992 1058.21 431.931 1054.97 433.808C1051.72 435.6 1049.08 438.288 1047.03 441.872C1045.07 445.371 1044.09 449.552 1044.09 454.416C1044.09 459.28 1045.07 463.547 1047.03 467.216C1049.08 470.885 1051.72 473.701 1054.97 475.664C1058.3 477.541 1061.79 478.48 1065.46 478.48C1069.22 478.48 1072.72 477.541 1075.96 475.664C1079.2 473.787 1081.8 471.056 1083.77 467.472C1085.82 463.803 1086.84 459.536 1086.84 454.672ZM1184.21 419.472L1140.95 523.152H1125.85L1140.18 488.848L1112.41 419.472H1128.66L1148.5 473.232L1169.11 419.472H1184.21ZM1249.37 437.52V449.808H1196.76V437.52H1249.37ZM1334.74 453.008C1334.74 455.653 1334.57 458.043 1334.23 460.176H1280.34C1280.77 465.808 1282.86 470.331 1286.61 473.744C1290.37 477.157 1294.97 478.864 1300.44 478.864C1308.29 478.864 1313.83 475.579 1317.08 469.008H1332.82C1330.69 475.493 1326.8 480.827 1321.17 485.008C1315.63 489.104 1308.71 491.152 1300.44 491.152C1293.69 491.152 1287.64 489.659 1282.26 486.672C1276.97 483.6 1272.79 479.333 1269.72 473.872C1266.73 468.325 1265.24 461.925 1265.24 454.672C1265.24 447.419 1266.69 441.061 1269.59 435.6C1272.57 430.053 1276.71 425.787 1282 422.8C1287.38 419.813 1293.52 418.32 1300.44 418.32C1307.09 418.32 1313.02 419.771 1318.23 422.672C1323.43 425.573 1327.49 429.669 1330.39 434.96C1333.29 440.165 1334.74 446.181 1334.74 453.008ZM1319.51 448.4C1319.42 443.024 1317.5 438.715 1313.75 435.472C1309.99 432.229 1305.34 430.608 1299.8 430.608C1294.76 430.608 1290.45 432.229 1286.87 435.472C1283.28 438.629 1281.15 442.939 1280.47 448.4H1319.51ZM1378.67 431.376H1365.61V490H1350.89V431.376H1342.57V419.472H1350.89V414.48C1350.89 406.373 1353.03 400.485 1357.29 396.816C1361.64 393.061 1368.43 391.184 1377.64 391.184V403.344C1373.21 403.344 1370.09 404.197 1368.3 405.904C1366.51 407.525 1365.61 410.384 1365.61 414.48V419.472H1378.67V431.376ZM1421.17 431.376H1408.11V490H1393.39V431.376H1385.07V419.472H1393.39V414.48C1393.39 406.373 1395.53 400.485 1399.79 396.816C1404.14 393.061 1410.93 391.184 1420.14 391.184V403.344C1415.71 403.344 1412.59 404.197 1410.8 405.904C1409.01 407.525 1408.11 410.384 1408.11 414.48V419.472H1421.17V431.376ZM1441.52 410.128C1438.88 410.128 1436.66 409.232 1434.87 407.44C1433.08 405.648 1432.18 403.429 1432.18 400.784C1432.18 398.139 1433.08 395.92 1434.87 394.128C1436.66 392.336 1438.88 391.44 1441.52 391.44C1444.08 391.44 1446.26 392.336 1448.05 394.128C1449.84 395.92 1450.74 398.139 1450.74 400.784C1450.74 403.429 1449.84 405.648 1448.05 407.44C1446.26 409.232 1444.08 410.128 1441.52 410.128ZM1448.69 419.472V490H1434.1V419.472H1448.69ZM1462.99 454.672C1462.99 447.419 1464.44 441.061 1467.34 435.6C1470.32 430.053 1474.42 425.787 1479.63 422.8C1484.83 419.813 1490.8 418.32 1497.55 418.32C1506.08 418.32 1513.12 420.368 1518.67 424.464C1524.3 428.475 1528.1 434.235 1530.06 441.744H1514.31C1513.03 438.245 1510.99 435.515 1508.17 433.552C1505.35 431.589 1501.81 430.608 1497.55 430.608C1491.57 430.608 1486.79 432.741 1483.21 437.008C1479.71 441.189 1477.96 447.077 1477.96 454.672C1477.96 462.267 1479.71 468.197 1483.21 472.464C1486.79 476.731 1491.57 478.864 1497.55 478.864C1505.99 478.864 1511.58 475.152 1514.31 467.728H1530.06C1528.01 474.896 1524.17 480.613 1518.54 484.88C1512.91 489.061 1505.91 491.152 1497.55 491.152C1490.8 491.152 1484.83 489.659 1479.63 486.672C1474.42 483.6 1470.32 479.333 1467.34 473.872C1464.44 468.325 1462.99 461.925 1462.99 454.672ZM1552.02 410.128C1549.38 410.128 1547.16 409.232 1545.37 407.44C1543.58 405.648 1542.68 403.429 1542.68 400.784C1542.68 398.139 1543.58 395.92 1545.37 394.128C1547.16 392.336 1549.38 391.44 1552.02 391.44C1554.58 391.44 1556.76 392.336 1558.55 394.128C1560.34 395.92 1561.24 398.139 1561.24 400.784C1561.24 403.429 1560.34 405.648 1558.55 407.44C1556.76 409.232 1554.58 410.128 1552.02 410.128ZM1559.19 419.472V490H1544.6V419.472H1559.19ZM1642.99 453.008C1642.99 455.653 1642.82 458.043 1642.48 460.176H1588.59C1589.02 465.808 1591.11 470.331 1594.86 473.744C1598.62 477.157 1603.22 478.864 1608.69 478.864C1616.54 478.864 1622.08 475.579 1625.33 469.008H1641.07C1638.94 475.493 1635.05 480.827 1629.42 485.008C1623.88 489.104 1616.96 491.152 1608.69 491.152C1601.94 491.152 1595.89 489.659 1590.51 486.672C1585.22 483.6 1581.04 479.333 1577.97 473.872C1574.98 468.325 1573.49 461.925 1573.49 454.672C1573.49 447.419 1574.94 441.061 1577.84 435.6C1580.82 430.053 1584.96 425.787 1590.25 422.8C1595.63 419.813 1601.77 418.32 1608.69 418.32C1615.34 418.32 1621.27 419.771 1626.48 422.672C1631.68 425.573 1635.74 429.669 1638.64 434.96C1641.54 440.165 1642.99 446.181 1642.99 453.008ZM1627.76 448.4C1627.67 443.024 1625.75 438.715 1622 435.472C1618.24 432.229 1613.59 430.608 1608.05 430.608C1603.01 430.608 1598.7 432.229 1595.12 435.472C1591.53 438.629 1589.4 442.939 1588.72 448.4H1627.76ZM1692.93 418.32C1698.48 418.32 1703.43 419.472 1707.78 421.776C1712.22 424.08 1715.68 427.493 1718.15 432.016C1720.62 436.539 1721.86 442 1721.86 448.4V490H1707.4V450.576C1707.4 444.261 1705.82 439.44 1702.66 436.112C1699.5 432.699 1695.2 430.992 1689.73 430.992C1684.27 430.992 1679.92 432.699 1676.68 436.112C1673.52 439.44 1671.94 444.261 1671.94 450.576V490H1657.35V419.472H1671.94V427.536C1674.33 424.635 1677.36 422.373 1681.03 420.752C1684.78 419.131 1688.75 418.32 1692.93 418.32ZM1757.5 431.376V470.416C1757.5 473.061 1758.1 474.981 1759.29 476.176C1760.57 477.285 1762.7 477.84 1765.69 477.84H1774.65V490H1763.13C1756.56 490 1751.53 488.464 1748.03 485.392C1744.53 482.32 1742.78 477.328 1742.78 470.416V431.376H1734.46V419.472H1742.78V401.936H1757.5V419.472H1774.65V431.376H1757.5Z" fill="black"/>
</g>
<defs>
<clipPath id="clip0_2_2">
<rect width="2000" height="600" fill="white"/>
</clipPath>
</defs>
</svg>
